HIERARCHY
ROOT Reference
{
  OFFSET 0 0 0
  CHANNELS 6 Xposition Yposition Zposition Zrotation Xrotation Yrotation
  JOINT Hips
  {
    OFFSET 251.394 724.17 483.536
    CHANNELS 3 Zrotation Xrotation Yrotation
    JOINT RightUpLeg
    {
      OFFSET -0.450515 -23.4426 -1.37224
      CHANNELS 3 Zrotation Xrotation Yrotation
      JOINT RightLeg
      {
        OFFSET 112.821 0.0872427 -0.321027
        CHANNELS 3 Zrotation Xrotation Yrotation
        JOINT RightFoot
        {
          OFFSET 105.718 0.000193788 0.0213165
          CHANNELS 3 Zrotation Xrotation Yrotation
          JOINT RightToeBase
          {
            OFFSET 37.638 -0.000116272 0.00224792
            CHANNELS 3 Zrotation Xrotation Yrotation
            JOINT RightToeEnd
            {
              OFFSET 21.2112 0.114605 -0.000138184
              CHANNELS 3 Zrotation Xrotation Yrotation
              End Site
              {
                OFFSET 0 0 0
              }
            }
          }
        }
      }
    }
    JOINT LeftUpLeg
    {
      OFFSET -0.449508 23.4315 -1.37054
      CHANNELS 3 Zrotation Xrotation Yrotation
      JOINT LeftLeg
      {
        OFFSET 112.821 -0.0485242 -0.372458
        CHANNELS 3 Zrotation Xrotation Yrotation
        JOINT LeftFoot
        {
          OFFSET 105.716 0.00496094 -0.0229443
          CHANNELS 3 Zrotation Xrotation Yrotation
          JOINT LeftToeBase
          {
            OFFSET 37.639 0 0.00158905
            CHANNELS 3 Zrotation Xrotation Yrotation
            JOINT LeftToeEnd
            {
              OFFSET 21.2113 -0.125031 -0.00017438
              CHANNELS 3 Zrotation Xrotation Yrotation
              End Site
              {
                OFFSET 0 0 0
              }
            }
          }
        }
      }
    }
    JOINT Spine
    {
      OFFSET -5.01225 0.000463591 -9.60395
      CHANNELS 3 Zrotation Xrotation Yrotation
      JOINT Spine1
      {
        OFFSET 26.0222 -0.000271301 -0.000155029
        CHANNELS 3 Zrotation Xrotation Yrotation
        JOINT Spine2
        {
          OFFSET 27.173 -0.000155029 -0.000310058
          CHANNELS 3 Zrotation Xrotation Yrotation
          JOINT Spine3
          {
            OFFSET 36.3953 -0.000232544 7.75146e-005
            CHANNELS 3 Zrotation Xrotation Yrotation
            JOINT Neck
            {
              OFFSET 36.4331 0 -3.00261
              CHANNELS 3 Zrotation Xrotation Yrotation
              JOINT Head
              {
                OFFSET 23.0407 -0.000232544 -0.000310058
                CHANNELS 3 Zrotation Xrotation Yrotation
                End Site
                {
                  OFFSET 0 0 0
                }
              }
            }
            JOINT LeftShoulder
            {
              OFFSET 20.1317 6.74168 -12.6061
              CHANNELS 3 Zrotation Xrotation Yrotation
              JOINT LeftArm
              {
                OFFSET 34.2172 -5.81359e-005 7.75146e-005
                CHANNELS 3 Zrotation Xrotation Yrotation
                JOINT LeftForeArm
                {
                  OFFSET 65.4129 -0.0821605 0.0585235
                  CHANNELS 3 Zrotation Xrotation Yrotation
                  JOINT LeftHand
                  {
                    OFFSET 67.3883 0.0359667 0.0112396
                    CHANNELS 3 Zrotation Xrotation Yrotation
                    JOINT LeftHandThumb1
                    {
                      OFFSET 8.78386 2.85353 -6.05362
                      CHANNELS 3 Zrotation Xrotation Yrotation
                      JOINT LeftHandThumb2
                      {
                        OFFSET 8.25498 -0.000116272 -0.000174407
                        CHANNELS 3 Zrotation Xrotation Yrotation
                        JOINT LeftHandThumb3
                        {
                          OFFSET 7.24822 0.000310058 5.81358e-005
                          CHANNELS 3 Zrotation Xrotation Yrotation
                          JOINT LeftHandThumb4
                          {
                            OFFSET 7.0004 -3.87568e-005 -0.000310057
                            CHANNELS 3 Zrotation Xrotation Yrotation
                            End Site
                            {
                              OFFSET 0 0 0
                            }
                          }
                        }
                      }
                    }
                    JOINT LeftHandIndex1
                    {
                      OFFSET 24.0991 -1.01537 -5.40558
                      CHANNELS 3 Zrotation Xrotation Yrotation
                      JOINT LeftHandIndex2
                      {
                        OFFSET 7.26759 -0.000290679 -0.000465086
                        CHANNELS 3 Zrotation Xrotation Yrotation
                        JOINT LeftHandIndex3
                        {
                          OFFSET 7.13628 -1.93787e-005 0.000232543
                          CHANNELS 3 Zrotation Xrotation Yrotation
                          JOINT LeftHandIndex4
                          {
                            OFFSET 5.46699 9.68932e-005 -0.000387571
                            CHANNELS 3 Zrotation Xrotation Yrotation
                            End Site
                            {
                              OFFSET 0 0 0
                            }
                          }
                        }
                      }
                    }
                    JOINT LeftHandMiddle1
                    {
                      OFFSET 24.4604 -2.52837 0.918567
                      CHANNELS 3 Zrotation Xrotation Yrotation
                      JOINT LeftHandMiddle2
                      {
                        OFFSET 7.41627 -5.81359e-005 0.000116271
                        CHANNELS 3 Zrotation Xrotation Yrotation
                        JOINT LeftHandMiddle3
                        {
                          OFFSET 8.76829 3.87573e-005 -7.75142e-005
                          CHANNELS 3 Zrotation Xrotation Yrotation
                          JOINT LeftHandMiddle4
                          {
                            OFFSET 6.07588 -0.00013565 -5.81356e-005
                            CHANNELS 3 Zrotation Xrotation Yrotation
                            End Site
                            {
                              OFFSET 0 0 0
                            }
                          }
                        }
                      }
                    }
                    JOINT LeftHandRing1
                    {
                      OFFSET 22.465 -1.97467 6.3466
                      CHANNELS 3 Zrotation Xrotation Yrotation
                      JOINT LeftHandRing2
                      {
                        OFFSET 7.36666 -0.000232544 0.000387571
                        CHANNELS 3 Zrotation Xrotation Yrotation
                        JOINT LeftHandRing3
                        {
                          OFFSET 8.07624 -0.000465087 -0.000203475
                          CHANNELS 3 Zrotation Xrotation Yrotation
                          JOINT LeftHandRing4
                          {
                            OFFSET 6.04433 0.00013565 3.87571e-005
                            CHANNELS 3 Zrotation Xrotation Yrotation
                            End Site
                            {
                              OFFSET 0 0 0
                            }
                          }
                        }
                      }
                    }
                    JOINT LeftHandPinky1
                    {
                      OFFSET 19.5278 0.352933 10.4295
                      CHANNELS 3 Zrotation Xrotation Yrotation
                      JOINT LeftHandPinky2
                      {
                        OFFSET 6.16525 5.8136e-005 -0.000251921
                        CHANNELS 3 Zrotation Xrotation Yrotation
                        JOINT LeftHandPinky3
                        {
                          OFFSET 6.14448 -0.000329434 -0.00510625
                          CHANNELS 3 Zrotation Xrotation Yrotation
                          JOINT LeftHandPinky4
                          {
                            OFFSET 4.98555 0.000116272 0.000116271
                            CHANNELS 3 Zrotation Xrotation Yrotation
                            End Site
                            {
                              OFFSET 0 0 0
                            }
                          }
                        }
                      }
                    }
                  }
                }
              }
            }
            JOINT RightShoulder
            {
              OFFSET 20.1309 -6.74152 -12.6063
              CHANNELS 3 Zrotation Xrotation Yrotation
              JOINT RightArm
              {
                OFFSET 34.2171 7.75146e-005 7.75146e-005
                CHANNELS 3 Zrotation Xrotation Yrotation
                JOINT RightForeArm
                {
                  OFFSET 65.4492 0.242543 -0.176501
                  CHANNELS 3 Zrotation Xrotation Yrotation
                  JOINT RightHand
                  {
                    OFFSET 67.3888 -0.0867388 0.0597442
                    CHANNELS 3 Zrotation Xrotation Yrotation
                    JOINT RightHandThumb1
                    {
                      OFFSET 8.78307 -2.85357 -6.05302
                      CHANNELS 3 Zrotation Xrotation Yrotation
                      JOINT RightHandThumb2
                      {
                        OFFSET 8.25493 -7.75145e-005 0
                        CHANNELS 3 Zrotation Xrotation Yrotation
                        JOINT RightHandThumb3
                        {
                          OFFSET 7.24797 -0.000174408 0.000155029
                          CHANNELS 3 Zrotation Xrotation Yrotation
                          JOINT RightHandThumb4
                          {
                            OFFSET 7.00062 0 0
                            CHANNELS 3 Zrotation Xrotation Yrotation
                            End Site
                            {
                              OFFSET 0 0 0
                            }
                          }
                        }
                      }
                    }
                    JOINT RightHandIndex1
                    {
                      OFFSET 24.0991 1.01525 -5.40578
                      CHANNELS 3 Zrotation Xrotation Yrotation
                      JOINT RightHandIndex2
                      {
                        OFFSET 7.26773 7.75144e-005 0.000232543
                        CHANNELS 3 Zrotation Xrotation Yrotation
                        JOINT RightHandIndex3
                        {
                          OFFSET 7.13572 -0.000310058 3.87571e-005
                          CHANNELS 3 Zrotation Xrotation Yrotation
                          JOINT RightHandIndex4
                          {
                            OFFSET 5.46717 0 3.87572e-005
                            CHANNELS 3 Zrotation Xrotation Yrotation
                            End Site
                            {
                              OFFSET 0 0 0
                            }
                          }
                        }
                      }
                    }
                    JOINT RightHandMiddle1
                    {
                      OFFSET 24.4603 2.52899 0.918547
                      CHANNELS 3 Zrotation Xrotation Yrotation
                      JOINT RightHandMiddle2
                      {
                        OFFSET 7.41641 -0.000116272 -0.000116272
                        CHANNELS 3 Zrotation Xrotation Yrotation
                        JOINT RightHandMiddle3
                        {
                          OFFSET 8.76765 -3.87577e-005 0.000232543
                          CHANNELS 3 Zrotation Xrotation Yrotation
                          JOINT RightHandMiddle4
                          {
                            OFFSET 6.07609 -0.000193787 -0.000116271
                            CHANNELS 3 Zrotation Xrotation Yrotation
                            End Site
                            {
                              OFFSET 0 0 0
                            }
                          }
                        }
                      }
                    }
                    JOINT RightHandRing1
                    {
                      OFFSET 22.465 1.97571 6.34696
                      CHANNELS 3 Zrotation Xrotation Yrotation
                      JOINT RightHandRing2
                      {
                        OFFSET 7.36684 0.000193786 0.000155029
                        CHANNELS 3 Zrotation Xrotation Yrotation
                        JOINT RightHandRing3
                        {
                          OFFSET 8.07614 -0.000271301 0
                          CHANNELS 3 Zrotation Xrotation Yrotation
                          JOINT RightHandRing4
                          {
                            OFFSET 6.04468 0.000232543 0
                            CHANNELS 3 Zrotation Xrotation Yrotation
                            End Site
                            {
                              OFFSET 0 0 0
                            }
                          }
                        }
                      }
                    }
                    JOINT RightHandPinky1
                    {
                      OFFSET 19.5277 -0.352346 10.4296
                      CHANNELS 3 Zrotation Xrotation Yrotation
                      JOINT RightHandPinky2
                      {
                        OFFSET 6.16508 0 0.000232543
                        CHANNELS 3 Zrotation Xrotation Yrotation
                        JOINT RightHandPinky3
                        {
                          OFFSET 6.14396 -0.000155048 -0.0048834
                          CHANNELS 3 Zrotation Xrotation Yrotation
                          JOINT RightHandPinky4
                          {
                            OFFSET 4.98577 -7.75146e-005 -7.75143e-005
                            CHANNELS 3 Zrotation Xrotation Yrotation
                            End Site
                            {
                              OFFSET 0 0 0
                            }
                          }
                        }
                      }
                    }
                  }
                }
              }
            }
          }
        }
      }
    }
  }
}
MOTION
Frames:	4
Frame Time:	0.0333333
0 0 0 -90 -7.01671e-015 -180 1.37201 -9.80044 -118.158 178.9 8.13255 -116.615 0.049146 0.251394 -10.3429 2.9002 15.6939 44.4572 -0.520429 0.255614 51.9712 -4.58512e-007 3.0186e-005 -86.4974 -170.881 -6.04863 -113.26 -0.0680304 -0.0984615 -17.0382 -1.86683 -2.20744 46.2157 0.582627 -0.122895 56.8313 0.000136449 -4.9657e-005 -86.4974 -9.70844e-006 -1.75488e-005 125.102 0.476693 -0.934678 -10.5486 -1.00471 -0.909985 -12.6108 -0.927326 2.62278 4.11838 0.0639714 -0.333752 19.2899 0.346719 -0.524895 45.704 84.3273 23.5575 -17.9119 79.7581 34.9573 8.05077 -4.34213 37.3995 19.7509 12.0489 12.6736 -8.69777 -176.205 -1.04649 162.423 0.000374747 -2.65349e-005 10.4459 0.00025565 2.38207e-006 11.9407 0.000853774 0.00116358 -7.25796e-005 113.493 82.167 -109.158 -0.000434382 -0.000311825 4.54079 0.000929575 -0.000839347 -0.0242788 -0.000603621 -0.000527522 -0.000468724 22.7739 89.9998 -15.5478 2.07159e-005 -0.000327885 4.54177 0.000723069 -0.000865051 -2.45476 -0.000548973 -0.000307571 0.000143432 -68.161 85.5497 70.1824 -9.29025e-005 -0.000906096 4.54159 0.00105303 -0.000802248 -2.56478 -0.000614376 -0.000706672 0.000730826 -57.5032 83.7797 59.9053 0.000805991 -0.00143356 1.6261 -0.000119877 -0.000282519 8.86967 -4.26892e-005 -5.42007e-005 -0.000383341 -88.2853 -22.609 -24.984 -77.1108 -32.1944 6.04 5.80035 -38.3493 18.6533 2.91583 -11.647 7.85008 176.205 1.04717 162.425 -9.833e-005 9.53202e-005 10.4461 0.000169854 0.000100538 11.9495 -0.000473023 -0.002182 -180 -113.493 -82.167 -109.145 -0.000197598 -0.000173199 4.54084 0.000165116 9.29563e-005 -0.0161568 -0.000106812 -6.10351e-005 -180 -11.6155 -89.9997 -4.38944 -3.10489e-005 5.60081e-005 4.54172 -1.07466e-005 0.000126541 -2.4548 1.52588e-005 3.05175e-005 -180 68.162 -85.5496 75.5644 4.60643e-005 -0.00011024 9.93243 -9.59919e-005 0.000376914 2.8164 3.05176e-005 -6.10351e-005 -180 54.8875 -83.8005 59.8327 -4.31719e-005 0.000242831 4.16482 1.03969e-007 0.000122424 11.4153 -3.05176e-005 -4.57763e-005 -180 
0 0 0 -90 -7.01671e-015 -180 1.29171 -9.8192 -118.033 179.194 7.82104 -116.488 0.0502195 0.262845 -10.381 2.9319 15.1385 44.3765 -0.537044 0.221831 52.2652 -7.32401e-007 1.92345e-005 -86.4974 -171.177 -5.89638 -113.085 -0.0406898 -0.0938269 -16.9915 -1.89654 -1.98129 46.1256 0.582637 -0.122894 56.8316 0.000136499 -5.29941e-005 -86.4974 9.71567e-006 1.75385e-005 125.079 0.429928 -0.925677 -10.6228 -0.989003 -0.929311 -12.6106 -0.904869 2.57295 4.02129 0.0457928 -0.239148 19.1123 0.425561 -0.484585 45.652 84.3504 23.5464 -17.991 79.7978 35.0134 8.15709 -4.31933 37.286 19.7248 11.9989 12.4193 -8.72948 -176.205 -1.04674 162.423 0.000374741 -2.65423e-005 10.4459 0.000255648 2.3686e-006 11.9407 0.000853774 0.00116358 -7.25796e-005 113.493 82.167 -109.155 -0.000429246 -0.000312336 4.54269 0.000916356 -0.000837834 -0.0223855 -0.000603619 -0.000527522 -0.000468724 21.5565 89.9998 -14.3257 2.26991e-005 -0.000329627 4.5453 0.000719856 -0.00085685 -2.45238 -0.000548973 -0.000307571 0.000143432 -68.161 85.5497 70.187 -8.8721e-005 -0.000905179 4.54512 0.00104122 -0.000806037 -2.56239 -0.000614378 -0.000706672 0.000730826 -57.5032 83.7797 59.911 0.00080612 -0.0014336 1.62848 -0.00012074 -0.000288325 8.87321 -4.26892e-005 -5.42006e-005 -0.000383341 -88.1977 -22.6202 -24.8932 -77.0808 -32.1323 5.95024 5.83581 -38.3859 18.6665 2.62364 -11.73 7.58388 176.205 1.04736 162.425 -9.82905e-005 9.19119e-005 10.4461 0.000169847 0.000100527 11.9495 -0.000473023 -0.002182 -180 -113.493 -82.167 -109.144 -0.000197557 -0.000170031 4.54152 0.000164688 9.19341e-005 -0.0156933 -0.000106812 -7.62939e-005 -180 -10.1696 -89.9997 -2.93883 -2.55973e-005 4.53826e-005 4.54524 -1.31018e-005 0.000141663 -2.45239 1.52588e-005 1.52588e-005 -180 68.162 -85.5496 75.5692 5.12526e-005 -0.000107981 9.93656 -0.000100586 0.000370581 2.81879 3.05176e-005 -6.10351e-005 -180 54.8873 -83.8005 59.8384 -3.7844e-005 0.000237884 4.1672 -8.39207e-006 0.000123367 11.4193 -3.05176e-005 -4.57763e-005 -180 
0 0 0 -90 -7.01671e-015 -180 1.27733 -9.82305 -117.996 179.602 7.55049 -116.567 0.0493103 0.264295 -10.2756 3.01945 14.4033 44.3456 -0.553007 0.189497 52.2584 -1.11176e-006 7.44137e-006 -86.4974 -171.306 -5.80551 -113.205 -0.058173 -0.0874243 -16.8066 -1.87664 -1.86397 46.0946 0.582649 -0.122892 56.8319 0.000136529 -5.83561e-005 -86.4974 1.52588e-005 4.03303e-015 125.084 0.393144 -0.900965 -10.6244 -1.01871 -0.915197 -12.6019 -0.904503 2.57918 3.9711 0.0354881 -0.184899 18.9638 0.38916 -0.445693 45.5823 84.3051 23.5438 -17.9885 79.7726 35.0689 8.40993 -4.20131 37.0661 19.5746 11.739 12.3823 -8.37111 -176.205 -1.04694 162.423 0.000374726 -2.89628e-005 10.4459 0.000255634 2.35355e-006 11.9407 0.000853774 0.00116358 -7.25796e-005 113.493 82.167 -109.152 -0.000421977 -0.000311453 4.5446 0.00090271 -0.00083643 -0.0204897 -0.00060362 -0.000529936 -0.000468724 19.7626 89.9998 -12.5271 2.34748e-005 -0.00033404 4.54883 0.000716532 -0.000849034 -2.45 -0.000548974 -0.000307571 0.000143432 -68.1612 85.5497 70.1919 -8.51497e-005 -0.000903962 4.54865 0.00102953 -0.000811103 -2.55999 -0.000614376 -0.000706672 0.000730826 -57.5031 83.7797 59.9168 0.000806487 -0.00143141 1.63086 -0.000121729 -0.000287891 8.87675 -4.26892e-005 -5.42006e-005 -0.000383341 -88.1679 -22.6276 -24.8417 -77.0902 -32.1321 5.94971 5.78689 -38.3859 18.5774 2.47781 -11.6764 7.52184 176.205 1.04754 162.425 -9.87039e-005 8.54452e-005 10.4461 0.000170209 9.81853e-005 11.9495 -0.000473023 -0.00219726 -180 -113.493 -82.167 -109.143 -0.000198061 -0.00017131 4.5422 0.00016469 9.41525e-005 -0.0152294 -0.000106812 -7.62939e-005 -180 -8.71828 -89.9997 -1.48276 -2.17675e-005 4.22662e-005 4.54876 -1.63723e-005 0.000157064 -2.44998 1.52588e-005 1.52588e-005 -180 68.1618 -85.5496 75.5736 5.43101e-005 -0.0001065 9.94069 -0.000106301 0.000358223 2.82119 3.05176e-005 -7.62938e-005 -180 54.8874 -83.8005 59.8443 -3.25473e-005 0.000230675 4.16958 -9.7666e-006 0.000123139 11.4232 -3.05176e-005 -4.57763e-005 -180 
0 0 0 -90 -7.01671e-015 -180 1.23478 -9.85694 -117.911 179.633 7.48801 -116.462 0.0506677 0.272522 -10.361 3.05376 14.1204 44.4515 -0.561068 0.171697 52.1171 -1.31098e-006 -1.59443e-005 -86.4974 -171.233 -5.80205 -113.054 -0.0394543 -0.0835194 -16.8429 -1.81722 -1.93579 46.0833 0.58266 -0.122891 56.8322 0.000136489 -6.74462e-005 -86.4974 9.71947e-006 1.75331e-005 125.066 0.381178 -0.866537 -10.6576 -1.0171 -0.882272 -12.594 -0.906205 2.59557 3.89204 0.0358715 -0.188153 18.9092 0.328598 -0.443543 45.5691 84.216 23.5339 -18.0127 79.7454 35.1185 8.59341 -4.13533 36.9477 19.4731 11.4489 12.4549 -8.0215 -176.205 -1.04716 162.423 0.000374734 -3.13766e-005 10.4459 0.000255656 -6.46312e-008 11.9407 0.000853774 0.00116358 -7.25796e-005 113.493 82.167 -109.148 -0.000416049 -0.000310219 4.5465 0.000889492 -0.000832998 -0.0185969 -0.000603619 -0.000533352 -0.000468724 18.1242 89.9998 -10.884 2.53827e-005 -0.000336238 4.55237 0.000718632 -0.000848912 -2.44079 -0.000548973 -0.000307571 0.000143432 -68.1611 85.5497 70.1965 -8.13116e-005 -0.000902796 4.55219 0.00103324 -0.000808518 -2.55078 -0.000614376 -0.000706672 0.000730826 -57.503 83.7796 59.9225 0.000807464 -0.00143667 1.63787 -0.000122459 -0.000288711 8.8803 -4.26892e-005 -5.42007e-005 -0.000383341 -88.1255 -22.6397 -24.7591 -77.2344 -32.1772 5.91793 5.7444 -38.2826 18.4856 2.35962 -11.8204 7.50875 176.205 1.04771 162.425 -9.8419e-005 7.29477e-005 10.4461 0.000169809 9.46798e-005 11.9495 -0.000473023 -0.00221252 -180 -113.493 -82.167 -109.142 -0.000198136 -0.000172785 4.54288 0.000164369 9.15237e-005 -0.0147657 -0.000106812 -9.15527e-005 -180 -7.75397 -89.9997 -0.513759 -1.73223e-005 3.63443e-005 4.55229 -1.77092e-005 0.000153295 -2.43969 1.52588e-005 3.24611e-014 -180 68.162 -85.5496 75.5786 5.93059e-005 -0.000109877 9.94483 -0.000102541 0.000360454 2.83147 3.05176e-005 -9.15526e-005 -180 54.8874 -83.8005 59.8501 -2.86299e-005 0.000236001 4.17658 -1.95751e-005 0.000122645 11.4272 -3.05176e-005 -6.10351e-005 -180 
